<?xml version="1.0"?>
    
<!--********* Copyright (c) 2024 Pareto Softare, LLC DBA Simplemaps.com ***************************************
************* Free for Commercial Use, full terms at  https://simplemaps.com/resources/svg-license ************
************* Attribution is appreciated! https://simplemaps.com *******************************************-->

<svg baseprofile="tiny" fill="#6f9c76" height="788" stroke="#ffffff" stroke-linecap="round" stroke-linejoin="round" stroke-width=".5" version="1.2" viewbox="0 0 1000 788" width="1000" xmlns="http://www.w3.org/2000/svg">
 <g id="features">
  <path d="M934.8 129.7l4 2.3 4.3 1.8 3.2 0.7 1.5 2.4 4.2 14.1-1.2 19.3 0.2 2.1 0.7 5.6-0.3 1.6-1.5 2.6 0.2 1.9 1.9 3.3 0.9 2.1 0.8 1.4 0.6 1.6 0.1 1.2 0.1 1.6-0.1 2.4-0.8 4.1-0.6 6.2-1.8 9.1-0.7 29.4 0 2.3 4 16.5-10.3 1.1-0.8 1-1 1.1-0.6 6.8-0.4 3.8-0.1 1.4-1 2.1-5.3 3.8-1 1-6.3 6.1-3.4 1.7-7 0.9-2.8 1.3-0.1 0-3.1 7.7-4 5-1.2 3.6-1.7 2.1-3.6 1-4 0.2-0.3-0.1-2.7-0.3-5.7-4.7-5.6-14.3-7-6.4-1.4-3.1 0.6-2.6 3.3-1 2.7 0.6 2.4 1.3 4.5 3.2-0.7-4.4-1.6-9.2-2.1-6.1-5.2-3.3-0.5-0.1-7.6-1.1-7.3 1.9-6.5 4.2-0.8 0.7-5.4 5-5.7 7.3-2 6.4 1.6 16 0 3.9-0.8 7.7 0.3 3.9 1 2.2 2.9 6.3 0.6 4-5.3 4.9-1.2 7-2.6 2.9-1.9 2.9 0.2 4.3 2.4 8.8-0.5 11.2 0.6 3.2 1.3 1.4 3.7 2.6 1.5 1.8 0.4 1.8-0.7 10-1.2 3-7.3 13.1-1.5 3.7 0.3 3.1 2.2 1.1 11.9 2.6 3.1 0.2 10.6-4.3 5.7 2.4 3 7.4 2.2 8.8 7 12.7-2.1 3.2-11.9 3-22 9-3.5-0.4-5-3.9-3.4 0.6-3.1 1.2-2.9 0.1-6.1-1.1-6.3-0.1-5.4 1-5.1 2.1-5.6 3-3.6 2.1-8.1 3-8.1 1.6-0.7 3 1.6 3.7 3.2 2.9 6.8 4.1 3.1 4.5 0.8 6 0.6 15.6-0.8 2.8-8.8 13.1-1.7 3.5-6.2 25.5-2.7 4-7 7.8-3.6 5.3-2.1 6.9-3.9 20.5-4.2 12.6-18 31.6-5.8 19.7-0.7 6.1 1.2 29.9-2 29.9-12.6 16.4-2.8 0.5-25.9-3.4-26.2-3.5-26.3-3.5-26.3-3.5-26.2-3.5-26.3-3.5-26.2-3.5-26.3-3.5-26.2-3.5-26.3-3.5-26.2-3.5-26.3-3.5-26.3-3.5-26.2-3.5-26.3-3.5-26.2-3.5-26.3-3.5-30.3-4.1-4.7-1.5-3.7-3.4-10.2-13-9.8-12.7-9.9-12.8-9.8-12.7-9.9-12.7-9.8-12.8-9.8-12.8-9.9-12.7-9.8-12.8-9.9-12.7-9.8-12.8-9.9-12.8-9.8-12.8-9.9-12.8-9.8-12.8-9.9-12.8-9.8-12.8-10.8-14-2.8-4.9-1-5.4 0.4-13.2 0-5.4-1.1-7.9 4-5.9 0.2-9.2-3.4-7.4 3.8-4.2 1.6 3.5 4 5.9 0.8 4.1 0 11.9 1.2 7.3 2.7 1.7 2.7-2.9 1.9-9.4 1.2 2.6 1.9 6.4 1.3 2.1 0.9 0.5 1.7 0.2 1.6-0.4 1-1 0.2-1-0.7-0.4 3.6-8.9 3.5-2.7 3.9 5.9 0.6 4.5-2 13.3 0.3 4.8 2.3 10.2 0.2 2.2-0.2 7 0.4 2.2 1.8 4.2 0.4 2.1 1.9 3.6 4.5 1.2 9.2 0.2 2.2 0.7 1.7 1 3.2 3.2 1.7 1.1 1.5 0 0.5-0.9-1.1-1.6-0.4-2.3 4.1-0.6 10.8 0.7 1.3-0.4 1.3 0.4 2.3 2.2 5.9 2.8 1.6-0.1 7.9-1.4 3.4 0.9 1.9-1.2 1.8 1.2 3-1.4 3.2-0.2 3.4 0.2 3.4-0.2 3.2-1.1 7.2-4.5 3.2-0.5 6 0 2.5-0.8 2.1-1.8 2.4-2.4 2.5-2.1 2.7-0.9 3.1-0.6 3.6-1.5 3.1-2.1 1.2-2.2 1.1-2.4 5.7-2.4 2.8-2.3 2.5-2.5 3.3-2.5 3.3-1.9 2.6-0.8 2.1-1.5 0.6-3.5 0-3.8 0.5-2.5 3.7-2.1 3.5 1.2 2.9 2.9 6.8 9.3 2.1 0.8 0.8-0.5 0.6-1.1 1.7-0.7 4.2 0.1 7.8 2.3 4.1 0.5 2.4-0.4 4-1.9 2.1-0.6 2.1 0 1.7 0.5 1.3 0.6 1.3 0.4 16.1 1.4 1.8-0.3 6.7-2.6 0.9-0.8 0.3-1.1 0.3-0.9 1.1 0 1 0.6 0.7 0.9 0.5 0.8 0.4 0.5 5.5 4.6 3.5 1.6 7.5-3.3 3.9 1.5 3.6 2 3.2-0.8-2.6-1.5-0.8-2 0-2.3-0.6-2.6 4.3-1 5 2.3 4.5 3.7 3.1 3.4 2.6 4.3 1.5 1.1 10.5 0.7 24.1-5 1.7 0 1.7 1.1 2.5 2.9 2 1.4 2.7 0.6 2.8-0.2 2.2-1.1 3.4 2.6 2 1.2 1.8 0.5 0.7 0.7 2.5 3.8 1.3 1.2 1.5 0.3 2.2 0 2.1-0.4 3.2-1.6 1.9 0.4 1.8 0.9 1.6 0.4 5.8-2.8 1.3-0.9 1.5-0.8 1.8 0.3 1.9 0.8 1.9 0.5 22.9 0.1 4.8-0.6 2-1.7 11.6-6.3 11.9-2 3.8-1.9 4-0.8 4.9-2.4 5.8-0.8 2-0.6 2.4-1.5 3.5-2.7 3.1-3.3 1.3-3.1 1.9-1.6 12.4-3.6 10-7.4 1.7-0.3 1.5-2.5 3.6 0.1 7.7 3.2 1.4-2.4 7-5.4 3.6-5 7.4-14.9-1-5.2 0.6-2.5 3-1.5-1.7-1.2-0.9-0.3 0-1.5 3 0.3 4.6 2.1 2.8 0.6-1.2-2.6-3.3-3.6-0.6-2.5 2.8 1.3 3 1 2.7 1.2 1.8 2.2 1.2 0-0.6-5.5-3.5-1.7-5-0.2-5.1-1.1-11-7.5-4.5-1 0-1.3 2.3-0.6 2.3-1.6 2-2.2 0.3 1.3 0.6 1.7 1.6 1.4-0.5-2.1 0.6-1.9 2.4-3.2 1.3 0 1.5 5.7 3.7 5.6 4.6 3.5 4.5-0.6-1.1-0.6-2.8-2.4 2.1 0.1 4.1 1.3 1.6 0.1 0.6-0.7 1.7-2.9 0.9-0.6 7.1-14.3-3.1-1.4-1.5-1.8 0.7-1.7 3.3-0.6 1.9-1.3 0.6-2.8 1.1-3 3.5-1.6 0-1.3-1.7-1.2-0.8-2.1-0.5-2.6-0.9-2.7 1-1.5-1.3-0.9-1.5-1.5 0.5-3.4 1.8-1.9 7.3-5 1-1.4 0.9-2 1.1-1.1 5.8 2.7 0.3 0.2 2.7-0.6 2.8-1.8 0.9-2.8-2.5-3.3 20.5-12.1 9.2-6.7 5.8-5.3 3.7-2.5 4.7-1.6 0.4-0.1 0.8-0.3 0.8-0.2 0.5-0.2 0.9-0.6 0.6-0.3 0.4-0.2 0.4-0.3 0.8-0.5 5.2-3-1-4.3 6.2-1.3 0.9 0.7 14.1-16.6 19.3-24.8 1-3.3-0.2-2.8 3.6-3.3 3 0.4 2.8 4.1 1 2.9-0.8 2.7-2.5 3.9 5.3-1.7 1-3.7-1.5-4.6-3.8-7-0.5-1.7 1.1-1.8 5.7-6.2 1.6-0.7 2.9 0.1-0.9-2.6 0.1-2.5 1.2-2.1 2.2-1.3 1.9 1.6 3.8-3.2 6-8.4 1.1 0 0.9 2.5 1.1 0.2 1.1-1.6 0.8-2.5 1.3 1.4 2.6-7.8 1.8-3.4 2-1.8-2.3-1.2 1.2-2.6 2.4-3.3 1.3-3.5 0.8-3.6 2.1-4.1 2.9-3.4 3.3-1.3-1.7 3.5-2 2.8-1.2 2.5 1.1 2.8 2.9 1.2 3.7-0.7 4.1-1.2 4-0.8 1.2-1.6 3-8.2 1.6-3 5-5.4 3.1-2.4 6.5-2.5 4.8-6.9 2.1-1.5 1.7-0.3 2.4-0.8 2.1-1.1 0.9-1.4 0.9-0.5 5.6-1.5 6.7-5.5 10.2-13.1 5.2-4.5-1.1 1.9-1.2 4.3-2 3.7 0.8 1.2 1.4 0.4 0.7-0.7 0.4-3.1 1.8-5.9 0.4-4 1.2-1.8 7.9-7.5 1.7-2.2 1.4-2.5 1.2-3 0.7-3.8-1.2 0-0.7 1.9-1.1 1.7-1.5 1.2-1.8 0.8 5-8.3 4.1-8.9 3.3-13.4 0.8-1.8 4.4-0.4 9.6-2.5 2.1 0.3 3 8.1 0.9 4.3-0.4 3.8-1.2 6.3-0.8 18.8-1.3 3-3.6 5.2-0.9 3.1 0.8 3.6 4.4 5.9 0.9 2.6-1.4 2.7-2.4 1.9-2 2.2-0.2 3.6 0.9 9.4 1.1 2.5 0.3 0.2 0.7 0.4 4.5 0.8 1.7 1.4 1.8 4.2 1.4 1.6 2.9 0.8 3.1-0.6 7.8-2.2z m-3.5 62l-5.1 3.8 0.4 3.4 0.6 2.1 1.1 1.7-1.8 2.2-5 2.6-0.5 5.1 0.3 2.1 2.3 1.1 3 0.9 3.1-1.3 5.6-4.1 2.2-1.8 4.4-1.6 5.2-2.8 0.9-5.7-7.5-1.5-3.5-5.5-5.7-0.7z m0.5 17.1l-0.7-5.6 1.1-1.1 1.6 0 2.7 1.9-1 3.5-3.7 1.3z m-492.1 226.7l-3.3-0.4-2.2-0.8 0-1.6 2.9-3 2.1-1.3 0.3-0.2 4.6-1.7 2-1 3.6-3.2 1.1-0.7 1.3-0.9 0.8-0.3 2.2-0.7 1.8 0.1 2.8 1.1 0.4 0.1 1 0.2 1.3-0.5 4.5-3.7 5.2-2.2 2.1-1.2 1.6-2.3 1 2.6-0.3 0.6-0.7 1.1 1.9 3.2 0.9 0.9 4.8 3.1 0.7 0.4 6.5 1.3 1.4 0.6 3.9 1.6 1.9 5.9-2.6 4.7-5.8 2-6.7-0.2-5.6-2.3 0.4-1.9-1.5-2.7-2.3-0.6-1.9 3.9 1.4 1.3-5.1 3.3-6.2 1.2-6.3-0.7-5.6-2.3-3.3-1.8-1.9-0.7-5.1-0.3z m100.8-14.3l-1.9-3.6-4.1-1.9-4.7-1.3-4.1-2.4-2.1-5.3 0-0.1 2.6-4.3 4.1-1.7 1 0.9 1.5 1.4 4.8 5.3 2.4 2.6 2 5.1-1.5 5.3z m-305.2-24.1l2.4-3.5 4.5-2.6 4.4 1.4 2 3.3 1.1 5.3-0.4 3.2-4.1 5.4-3.5 3.1-3.1 3.1-2.5-2.6-2-3.5-2.3-5 0.4-4.1 3.1-3.5z m141.3 16.8l-2.7-3.3-2.7-0.2-3.5-1.9-1.8 3.1-7.2-1.1-2.7-0.4-4 0.8-0.7 0.3-0.5 0-0.4-1.1 0.1-1.2 0.5-1.5 0.7-1.3 0.6-0.5 7.1 1.5 1.9-0.5 4.8-2.1 1-0.9 1-0.8 6.2-2.5 3.5-1.6 1.7 0 1.8 3.3 1.9 1 1.7-0.8 0.4-2.3-0.3-2.2-1.1-2 7.1-10.6 3.3-2.3 0.2 1.2 0.8 2 0.3 1.2 4.4 2.4-1.2 8-2.4 2.6-7.5 3.5-3.5 2.2-4.5 0.6-2.7 2.1 0 2.2-1.6 3.1z m200.1-36.7l-9-2.8 0-3.3 7.6-7.1 2.7-4 1.3 0-1.3 4.4 1.3 3.7 3.4 2.7 7 3.6 3.4 3.5 0.2 2.4-2.6 0.8-5-0.9-9-3z m-22 30.1l-1.7 1.4-1.8 1-1.6 0.4-2.1-0.1-1.1-0.6-3.2-3.8-2.4-1.7-1.8-0.8-0.7-1.4 1-3.2 1.4-1.9 2.2-1.6 2.7-0.8 2.7 0 1.7 3.5 1.9 3 4.2 4.9-1.4 1.7z m11.3-16.3l1.8 1.9 0.1 2.8-2 6.1-3.1 1.5-5.2-9-0.5-1.5 1.4-0.2 2.1 0.5 1.8 1.2 0.8 0.4 0.3-0.9-0.5-1.1-2.8-2.1-0.6-1.9 2.4-0.3 4 2.6z m-380.7-34.5l4.3 2.9 1.2 5-2.4 4.3-2.3 1.1-2.7-1.5-1-1.3-0.9-0.6-1.2-1.1-0.2-2.8 1.6-2.2 1.5-2.5 2.1-1.3z" id="AE" name="United Arab Emirates">
  </path>
 </g>
<!-- <g id="points">
  <circle class="22.793638273547305|51.8100610685751" cx="90.9" cy="716.5" id="0">
  </circle>
  <circle class="24.17517668344435|54.217206250418755" cx="545.5" cy="432" id="1">
  </circle>
  <circle class="25.902099695815657|56.14292239589368" cx="909.1" cy="72.1" id="2">
  </circle>
 </g>
 <g id="label_points">
  <circle class="United Arab Emirates" cx="607.8" cy="578.3" id="AE">
  </circle>
 </g>-->
</svg>
